# xmcd
#
# Track frame offsets: 
#        150
#        14166
#        35294
#        55460
#        75741
#        98657
#        119837
#        138850
#        158848
#        176196
#        193640
#        221522
#
# Disc length: 3178 seconds
#
# Revision: 0
# Processed by: cddbd v1.5.2PL0 Copyright (c) Steve Scherf et al.
# Submitted via: ExactAudioCopy v0.99pb5
#
DISCID=aa0c680c
DTITLE=The Delta Sonics - Live At Lincoln's (11-11-11)
DYEAR=2012
DGENRE=Blues
TTITLE0=Boogie Woogie Baby
TTITLE1=Born Blind
TTITLE2=Coffee
TTITLE3=Reconsider Baby
TTITLE4=Bricks In My Pillow
TTITLE5=Honey Hush
TTITLE6=I Had My Fun
TTITLE7=In The Open
TTITLE8=Asked For Water
TTITLE9=Empty Arms
TTITLE10=Just A Feelin'
TTITLE11=Flip, Flop and Fly
EXTD=
EXTT0=
EXTT1=
EXTT2=
EXTT3=
EXTT4=
EXTT5=
EXTT6=
EXTT7=
EXTT8=
EXTT9=
EXTT10=
EXTT11=
PLAYORDER=
